<svg width="100%" height="100%" viewBox="0 0 113 113" fill="none" xmlns="http://www.w3.org/2000/svg">
<g clip-path="url(#clip0)">
<path d="M97.4626 16.2438H84.5146V38.8438H97.4626V16.2438Z" fill="#415A6B"/>
<path d="M102.406 4.70825H79.5708V16.95H102.406V4.70825Z" fill="#415A6B"/>
<path d="M9.8877 60.973V113H102.171V60.973C84.044 42.846 73.921 32.723 56.0292 14.8312C38.1377 32.9582 28.0147 43.0812 9.8877 60.973Z" fill="#7676A7"/>
<path d="M102.406 60.973C84.2794 42.846 74.1564 32.723 56.2647 14.8312C47.0835 23.777 40.021 30.8395 32.9585 37.902C25.896 44.9645 18.8335 52.027 9.8877 60.9728V71.5665C28.0147 53.4395 38.1377 43.3165 56.0294 25.4248C74.1564 43.5518 84.2794 53.6748 102.171 71.5665V72.979V60.9728L102.406 60.973Z" fill="#33327B" fill-opacity="0.41"/>
<path d="M47.7893 113H20.0103V85.6918C20.0103 77.923 26.3665 71.8022 33.8998 71.8022C41.6685 71.8022 47.7893 78.1585 47.7893 85.6918V113Z" fill="#415A6B"/>
<path d="M92.2835 71.802H56.0293V103.583H92.2835V71.802Z" fill="#344A5E"/>
<path d="M72.2729 75.5687H59.7959V99.8167H72.2729V75.5687Z" fill="#8AD7F8"/>
<path d="M88.5166 75.5687H76.0396V99.8167H88.5166V75.5687Z" fill="#8AD7F8"/>
<path d="M110.881 51.3208L61.6792 2.11875C58.8542 -0.70625 53.9105 -0.70625 51.0855 2.11875L2.11875 51.3208C-0.70625 54.1458 -0.70625 59.0895 2.11875 61.9145C4.94375 64.7395 9.8875 64.7395 12.7125 61.9145L56.5 18.127L100.287 61.9145C103.112 64.7395 108.056 64.7395 110.881 61.9145C113.706 58.8542 113.706 54.1458 110.881 51.3208Z" fill="#33327B"/>
</g>
<defs>
<clipPath id="clip0">
<rect width="113" height="113" fill="white"/>
</clipPath>
</defs>
</svg>
